<svg id="Layer_1" data-name="Layer 1" xmlns="http://www.w3.org/2000/svg" viewBox="0 0 512 512"><defs><style>.cls-1{fill:#e85454;}.cls-2{fill:#fff;}.cls-3{fill:#141f38;}</style></defs><title>aim-and-arrow-filled</title><path class="cls-1" d="M230.4,473.6c-112.92,0-204.8-91.88-204.8-204.8S117.48,64,230.4,64s204.8,91.88,204.8,204.8S343.32,473.6,230.4,473.6Z"/><path class="cls-2" d="M230.4,396.8a128,128,0,1,1,128-128A128.14,128.14,0,0,1,230.4,396.8Z"/><path class="cls-1" d="M230.4,320a51.2,51.2,0,1,1,51.2-51.2A51.26,51.26,0,0,1,230.4,320Z"/><path class="cls-3" d="M486.4,51.2H466.1l16.55-16.55a12.8,12.8,0,0,0-18.1-18.1L448,33.1V12.8a12.8,12.8,0,1,0-25.6,0V58.7L409.6,71.5V51.2a12.8,12.8,0,1,0-25.6,0V97.1l-9.06,9.06a216.77,216.77,0,0,0-144.54-55c-120.18,0-217.6,97.42-217.6,217.6A217.52,217.52,0,0,0,124.55,458.95l-31.2,31.2a12.8,12.8,0,1,0,18.1,18.1L149,470.66a218.2,218.2,0,0,0,162.73,0l37.59,37.59a12.8,12.8,0,0,0,18.1-18.1l-31.2-31.2A217.61,217.61,0,0,0,393,124.26l9.06-9.06H448a12.8,12.8,0,1,0,0-25.6H427.7l12.8-12.8h45.9a12.8,12.8,0,0,0,0-25.6Zm-64,217.6c0,105.87-86.13,192-192,192s-192-86.13-192-192,86.13-192,192-192a191.19,191.19,0,0,1,126.35,47.55L320.5,160.6a140.81,140.81,0,1,0,18.1,18.1l36.25-36.25A191.19,191.19,0,0,1,422.4,268.8Zm-153.6,0a38.41,38.41,0,1,1-21.85-34.65l-25.6,25.6a12.8,12.8,0,1,0,18.1,18.1l25.6-25.6A38.17,38.17,0,0,1,268.8,268.8Zm-3.11-53.39a64,64,0,1,0,18.1,18.1l36.58-36.58a115.34,115.34,0,1,1-18.1-18.1Z"/></svg>